<?xml version="1.0" encoding="utf-8"?>
<!-- Generator: Adobe Illustrator 21.0.0, SVG Export Plug-In . SVG Version: 6.00 Build 0)  -->
<svg version="1.1" id="Layer_1" xmlns="http://www.w3.org/2000/svg" xmlns:xlink="http://www.w3.org/1999/xlink" x="0px" y="0px"
	 viewBox="-1300 -1500 2600 2600" style="enable-background:new 0 0 256 256;" xml:space="preserve">
<style type="text/css">
	.st0{fill:#448BC9;}
	.st1{fill:#CFE1F1;}
	.st2{fill:#73A8D6;}
	.st3{fill:#ED7E4A;}
	.st4{fill:#FEFEFE;}
</style>
<path class="st0" d="M-1115-329c0,28.8,0.1,57.6,0.1,86.4c0,33.8-0.1,67.6,0.1,101.4c0,3.9-0.6,5.4-5.1,5.4
	c-61.1-0.2-122.2-0.1-183.3-0.1c-3.2,0-5.1-0.1-5.1-4.4c0.2-62.4,0.1-124.9,0.1-187.3c0-0.5,0.1-1,0.1-1.5
	C-1243.7-329-1179.3-329-1115-329z"/>
<path class="st0" d="M-892-329c0,23.5-0.1,47-0.1,70.5c0,39.2-0.1,78.3,0.1,117.5c0,4.1-1.1,5.3-5.2,5.3c-61-0.1-122-0.1-183-0.1
	c-3.1,0-5.2,0.1-5.2-4.3c0.1-62.2,0.1-124.3,0.1-186.5c0-0.8,0.2-1.6,0.3-2.5C-1020.7-329-956.3-329-892-329z"/>
<path class="st0" d="M-670-329c0.1,1.8,0.3,3.6,0.3,5.5c0,60.5,0,120.9,0,181.4c0,7.1,0.7,6.3-6.5,6.3c-60.3,0-120.6,0-180.9,0.1
	c-4.7,0-6.1-0.9-6.1-5.9c0.2-62.5,0.1-124.9,0.1-187.4C-798.7-329-734.3-329-670-329z"/>
<path class="st1" d="M-1309,116c0.4,0.1,0.8,0.1,1.2,0.2c1.6,2,1.4,4.4,1.4,6.7c0,60,0,120,0,180c0,1.8,0.1,3.7-0.6,5.4
	c-0.3,0.6-0.6,1.2-1.1,1.7c-2.1-0.9-0.9-2.7-0.9-4C-1309,242.7-1309,179.3-1309,116z"/>
<path class="st2" d="M-1308,310c0-0.4,0.1-0.7,0.1-1.1c1.9-1.8,4.3-1.5,6.6-1.5c59.9,0,119.7,0,179.6,0c2.3,0,4.7-0.1,6.6,1.6
	c0,0.3,0,0.7,0,1C-1179.3,310-1243.7,310-1308,310z"/>
<path d="M-455.5-109.9c8.7-5.7,16.7-10.9,25.6-14.5c37.5-15.1,74.1-14.6,108.5,8.4c21.4,14.3,35.8,34.7,44.2,58.9
	C-264.3-20.4-263,17-275,54.1c-15.4,47.8-49.4,75.8-98.1,85.7c-33.7,6.9-67.3,3-100.5-4.3c-10.7-2.4-21.2-5.6-31.3-9.9
	c-2.8-1.2-4-2.6-4-5.8c0.1-127.5,0.1-255,0-382.5c0-3.5,0.9-4.4,4.4-4.4c14.8,0.2,29.7,0.2,44.5,0c3.7-0.1,4.6,0.8,4.6,4.6
	c-0.1,48.8-0.1,97.7-0.1,146.5C-455.5-114.2-455.5-112.4-455.5-109.9z"/>
<path d="M126.8-64.5c0-65.8,0-131.7-0.1-197.5c0-4.1,0.9-5.2,5.1-5.2c68.8,0.2,137.7,0.1,206.5,0c3.7,0,5.1,0.6,5,4.7
	c-0.3,14.2-0.2,28.3,0,42.5c0.1,3.8-0.8,4.9-4.8,4.9c-49.5-0.2-99,0-148.5-0.2c-4.2,0-5.1,1-5.1,5.1c0.2,34.3,0.2,68.7,0,103
	c0,3.9,0.9,4.9,4.9,4.9c49.5-0.1,99-0.1,148.5-0.2c3.7,0,5.1,0.6,5,4.8c-0.3,14.2-0.3,28.3,0,42.5c0.1,3.9-1,4.9-4.9,4.9
	c-49.3-0.1-98.7,0-148-0.2c-4.2,0-5.5,0.7-5.5,5.3c0.2,59.5,0.1,119,0.2,178.5c0,4.2-1,5.2-5.1,5.1c-15.8-0.3-31.7-0.3-47.5,0
	c-4.4,0.1-5.8-0.9-5.8-5.6C126.9,67.2,126.8,1.4,126.8-64.5z"/>
<path class="st0" d="M-1211.5,87c-30.7,0-61.3-0.1-92,0.1c-3.6,0-4.8-0.7-4.8-4.6c0.1-61.3,0.1-122.6,0-183.9c0-3.9,1.1-5,5-5
	c61.1,0.1,122.3,0.1,183.4,0c3.9,0,5,1,5,5c-0.1,61.3-0.1,122.6,0,183.9c0,3.8-1.1,4.7-4.8,4.6C-1150.2,86.9-1180.8,87-1211.5,87z"
	/>
<path class="st0" d="M-1115,309c-64.3,0-128.5,0-192.8-0.1c0-18-0.1-36-0.1-53.9c0-44.1,0-88.2,0-132.3c0-2.2,0.2-4.3,0.2-6.5
	c62.7,0,125.3,0,188-0.1c3.3,0,5,0.3,5,4.4c-0.1,62.2-0.1,124.3-0.1,186.5C-1114.9,307.7-1115,308.3-1115,309z"/>
<path d="M1011.2,60.7c0,17.2,0,33.6,0,50c0,1.8-1,2.6-2.3,3.4c-25.1,16.6-52.6,26-82.6,27.9c-20.5,1.3-40.9,1.1-60.9-4.3
	c-32.1-8.7-54.5-29.6-70.9-57.6c-16.2-27.6-20.7-57.9-18.7-89.4c1.7-27.6,9.1-53.4,25.7-75.9c23.3-31.9,55.2-47.6,94.4-48.5
	c29.9-0.7,57,6.7,79.4,27.5c21.4,19.8,32.8,44.8,37.9,73.1c2.3,12.6,3,25.4,3.1,38.3c0,4-1.1,4.9-5,4.8c-59-0.1-118,0-177-0.2
	c-5.2,0-6.1,1.2-5.5,6.2c4,33.8,20.1,58.8,52.5,71.5c18.2,7.1,37.2,6.7,56.1,4.1c25.9-3.6,49.2-13.5,70.5-28.5
	C1008.7,62.3,1009.6,61.7,1011.2,60.7z"/>
<path d="M751.3-128.3c-7.2,15.3-14.2,30.2-21.1,45C674.9,34.5,619.6,152.3,564.4,270.2c-1.7,3.5-3.4,4.8-7.4,4.8
	c-17.8-0.3-35.6-0.1-54.1-0.1c5.2-11.1,10.1-21.7,15.1-32.3c24.6-52.4,49.2-104.9,73.8-157.3c1.4-3,1.2-5.5-0.2-8.4
	c-33-66.9-65.8-133.7-98.8-200.6c-2.3-4.7-2.3-4.7,3.1-4.7c16.5,0,33,0.2,49.5-0.1c4.3-0.1,6.4,1.4,8.2,5.2
	c22.8,48.1,45.8,96.2,68.9,144.6c2.3-2.1,3-4.9,4.1-7.3c21.1-46,42.2-92,63.1-138.1c1.5-3.2,3.1-4.4,6.6-4.3
	c16.7,0.2,33.3,0.1,50,0.1C747.9-128.5,749.3-128.4,751.3-128.3z"/>
<path class="st3" d="M-989-105.4c53.9,0,96.1,42.4,96,96.5c0,52.3-43.1,95-95.7,95c-53.3,0-96.2-42.9-96.2-96.1
	C-1084.8-62.7-1041.9-105.4-989-105.4z"/>
<path d="M-17-183.6c0,17.4,0.1,33.9-0.1,50.3c-0.1,4,1,4.9,4.9,4.9c25-0.2,50,0,75-0.2c3.6,0,4.9,0.7,4.8,4.6
	c-0.3,12.7-0.3,25.3,0,38c0.1,4-0.8,5.3-5.1,5.3C37.4-81,12.2-80.8-13-80.9c-2.7,0-4.1,0.1-4.1,3.6c0.2,43.8,0.2,87.6,0.3,131.5
	c0,5.2,0.9,10.3,2.2,15.3c4.8,17.8,18.4,26.8,37.5,26c18.9-0.8,36.1-6.9,52.5-15.7c1.7-0.9,3.4-1.9,5.8-3.2c0,13.5-0.7,26.3,0.2,39
	c0.7,8.9-2.7,12.7-10.5,16c-27.4,11.5-55.4,15.7-84.3,8c-34.4-9.2-53.8-34.2-55.6-69.9C-71,31.9-69.6-5.7-70-43.3
	c-0.1-11.2-0.2-22.3,0.1-33.5c0.1-3.4-1-4.1-4.2-4.1c-12.5,0.2-25,0.1-37.5,0c-1.5,0-3.8,1.1-4.4-1c-0.6-2.1-0.6-4.4,1.5-6.4
	c5.5-5.1,10.7-10.5,16-15.7c26.4-25.9,52.8-51.8,79.2-77.7C-18.8-182.1-18.3-182.5-17-183.6z"/>
<path d="M399-64.5c0-65.8,0-131.6-0.1-197.5c0-4.1,0.9-5.2,5.1-5.1c14.7,0.3,29.3,0.2,44,0c3.3,0,4.1,0.8,4.1,4.1
	c-0.1,132.5-0.1,265,0,397.4c0,3.2-0.8,4.2-4.1,4.1c-14.8-0.2-29.7-0.2-44.5,0c-3.8,0.1-4.6-1-4.6-4.6C399,67.8,399,1.6,399-64.5z"
	/>
<path d="M1243.7-56.9c-8.8-7.8-17.6-15.1-28-20.2c-22.1-10.7-45.1-6.4-61.7,11.8c-16.1,17.6-24.1,38.4-24.1,62.2
	c-0.1,45.5-0.1,91,0.1,136.5c0,4.1-1,5.3-5.2,5.3c-14.5-0.3-29-0.2-43.5,0c-3.5,0-4.9-0.6-4.9-4.6c0.1-86,0.1-172,0-257.9
	c0-3.8,1.1-4.7,4.8-4.6c14.7,0.2,29.3,0.2,44,0c3.7-0.1,4.8,0.8,4.8,4.7c-0.2,16.5-0.1,33-0.1,49.5c0,1.6,0,3.2,0,4.7
	c6.4-8.5,12.1-17.3,18.5-25.4c7.3-9.3,15.4-17.9,24.8-25.2c20.2-15.6,41.7-17.4,64.7-6.9c11.8,5.4,22,13.1,31.7,21.5
	c1.6,1.4,2.1,2.6,0.8,4.6C1261.4-86.5,1252.6-71.8,1243.7-56.9z"/>
<path d="M-208,4.5c0-42.7,0.1-85.3-0.1-128c0-4.2,0.9-5.2,5.1-5.1c14.7,0.3,29.3,0.2,44,0c3.3,0,4.1,0.9,4.1,4.1
	c-0.1,86.3-0.1,172.6,0,258.9c0,3.2-0.8,4.1-4.1,4.1c-14.8-0.2-29.7-0.2-44.5,0c-3.8,0.1-4.6-1-4.6-4.7
	C-207.9,90.8-208,47.6-208,4.5z"/>
<path d="M-181.2-240.8c17.5,0.1,31.3,14,31.2,31.4c-0.1,17.3-14.8,31.5-32.1,31.3c-16.4-0.2-31-15.3-30.7-31.8
	C-212.6-226.6-198-240.9-181.2-240.8z"/>
<path class="st4" d="M-455.5,13.5c0-22.7,0.1-45.3-0.1-68c0-3.2,0.9-5.2,3.4-7.1c14.3-11.3,29.6-20.5,48.1-22.5
	c29.3-3.3,52.1,7.6,68.1,32.2c14,21.5,16.7,45.5,14.2,70.5c-2.4,23.5-11.9,43.4-30.2,58.7c-16.6,13.8-36.1,17.5-57,16.3
	c-14.2-0.8-28.1-3-41.8-6.5c-3.3-0.9-4.8-2.1-4.7-6C-455.4,58.5-455.5,36-455.5,13.5z"/>
<path class="st4" d="M896.2-22c-21,0-42,0-63,0c-2,0-4,0.4-3.3-2.9c4.5-21.3,13.1-40.1,32-52.6c23-15.2,66.2-15.2,86.5,11.2
	c9.5,12.3,13.5,26.4,14.9,41.6c0.3,3-1.1,2.8-3.1,2.8c-12.8,0-25.7,0-38.5,0C913.2-22,904.7-22,896.2-22z"/>
</svg>
