<?xml version="1.0" encoding="utf-8"?>
<svg viewBox="0 0 1100 350" style="enable-background:new 0 0 256 256;" xmlns="http://www.w3.org/2000/svg">
  <defs>
    <style type="text/css">
	.st0{fill:#448BC9;}
	.st1{fill:#CFE1F1;}
	.st2{fill:#73A8D6;}
	.st3{fill:#ED7E4A;}
	.st4{fill:#FEFEFE;}
</style>
  </defs>
  <path class="st0" d="M 101.648 27.674 C 101.648 40.069 101.689 52.464 101.689 64.859 C 101.689 79.405 101.648 93.952 101.729 108.498 C 101.729 110.176 101.483 110.821 99.63 110.821 C 74.478 110.736 49.325 110.779 24.173 110.779 C 22.855 110.779 22.073 110.736 22.073 108.886 C 22.155 82.03 22.114 55.132 22.114 28.277 C 22.114 28.062 22.155 27.847 22.155 27.632 C 48.667 27.674 75.178 27.674 101.648 27.674 Z" style=""/>
  <path class="st0" d="M 193.448 27.674 C 193.448 37.789 193.407 47.902 193.407 58.016 C 193.407 74.887 193.366 91.713 193.448 108.584 C 193.448 110.349 192.995 110.865 191.307 110.865 C 166.196 110.821 141.085 110.821 115.973 110.821 C 114.698 110.821 113.833 110.865 113.833 108.971 C 113.874 82.203 113.874 55.476 113.874 28.708 C 113.874 28.363 113.956 28.019 113.997 27.632 C 140.467 27.674 166.979 27.674 193.448 27.674 Z" style=""/>
  <path class="st0" d="M 284.837 27.674 C 284.878 28.449 284.96 29.224 284.96 30.042 C 284.96 56.079 284.96 82.074 284.96 108.11 C 284.96 111.166 285.249 110.821 282.284 110.821 C 257.461 110.821 232.639 110.821 207.816 110.865 C 205.881 110.865 205.304 110.477 205.304 108.325 C 205.386 81.428 205.345 54.573 205.345 27.674 C 231.856 27.674 258.368 27.674 284.837 27.674 Z" style=""/>
  <path class="st1" d="M 21.786 219.19 C 21.95 219.232 22.114 219.232 22.279 219.276 C 22.938 220.137 22.855 221.169 22.855 222.159 C 22.855 247.981 22.855 273.803 22.855 299.625 C 22.855 300.4 22.897 301.218 22.608 301.949 C 22.485 302.207 22.362 302.465 22.155 302.681 C 21.291 302.293 21.786 301.518 21.786 300.959 C 21.786 273.717 21.786 246.432 21.786 219.19 Z" style=""/>
  <path class="st2" d="M 22.197 302.681 C 22.197 302.509 22.238 302.379 22.238 302.207 C 23.02 301.433 24.007 301.562 24.955 301.562 C 49.614 301.562 74.23 301.562 98.89 301.562 C 99.836 301.562 100.824 301.518 101.607 302.251 C 101.607 302.379 101.607 302.552 101.607 302.681 C 75.178 302.681 48.667 302.681 22.197 302.681 Z" style=""/>
  <path d="M 373.139 121.969 C 376.721 119.515 380.013 117.278 383.677 115.728 C 399.114 109.23 414.182 109.445 428.342 119.343 C 437.152 125.498 443.08 134.278 446.538 144.692 C 451.848 160.486 452.384 176.583 447.443 192.549 C 441.103 213.121 427.108 225.171 407.06 229.432 C 393.187 232.401 379.354 230.724 365.688 227.581 C 361.282 226.548 356.961 225.171 352.802 223.321 C 351.65 222.805 351.155 222.202 351.155 220.825 C 351.197 165.952 351.197 111.08 351.155 56.208 C 351.155 54.701 351.526 54.315 352.967 54.315 C 359.06 54.401 365.193 54.401 371.286 54.315 C 372.81 54.271 373.18 54.659 373.18 56.295 C 373.139 77.297 373.139 98.341 373.139 119.343 C 373.139 120.118 373.139 120.893 373.139 121.969 Z" style=""/>
  <path d="M 612.849 141.508 C 612.849 113.189 612.849 84.828 612.807 56.509 C 612.807 54.745 613.178 54.271 614.907 54.271 C 643.229 54.357 671.592 54.315 699.916 54.271 C 701.439 54.271 702.014 54.53 701.973 56.295 C 701.85 62.406 701.891 68.474 701.973 74.585 C 702.014 76.22 701.645 76.694 699.998 76.694 C 679.621 76.608 659.243 76.694 638.866 76.608 C 637.138 76.608 636.767 77.038 636.767 78.803 C 636.849 93.564 636.849 108.369 636.767 123.13 C 636.767 124.809 637.138 125.24 638.784 125.24 C 659.161 125.196 679.538 125.196 699.916 125.154 C 701.439 125.154 702.014 125.411 701.973 127.219 C 701.85 133.331 701.85 139.399 701.973 145.51 C 702.014 147.188 701.563 147.619 699.957 147.619 C 679.662 147.576 659.326 147.619 639.03 147.532 C 637.301 147.532 636.767 147.833 636.767 149.813 C 636.849 175.42 636.808 201.028 636.849 226.634 C 636.849 228.442 636.438 228.873 634.75 228.83 C 628.245 228.7 621.7 228.7 615.195 228.83 C 613.384 228.873 612.807 228.442 612.807 226.42 C 612.89 198.187 612.849 169.869 612.849 141.508 Z" style=""/>
  <path class="st0" d="M 61.922 206.709 C 49.284 206.709 36.687 206.665 24.049 206.752 C 22.567 206.752 22.073 206.451 22.073 204.772 C 22.114 178.39 22.114 152.008 22.073 125.626 C 22.073 123.949 22.526 123.474 24.131 123.474 C 49.284 123.518 74.478 123.518 99.63 123.474 C 101.236 123.474 101.689 123.905 101.689 125.626 C 101.648 152.008 101.648 178.39 101.689 204.772 C 101.689 206.408 101.236 206.795 99.713 206.752 C 87.157 206.665 74.56 206.709 61.922 206.709 Z" style=""/>
  <path class="st0" d="M 101.648 302.251 C 75.178 302.251 48.75 302.251 22.279 302.207 C 22.279 294.461 22.238 286.713 22.238 279.011 C 22.238 260.031 22.238 241.052 22.238 222.072 C 22.238 221.126 22.32 220.222 22.32 219.276 C 48.131 219.276 73.901 219.276 99.713 219.232 C 101.071 219.232 101.771 219.361 101.771 221.126 C 101.729 247.894 101.729 274.621 101.729 301.39 C 101.689 301.691 101.648 301.949 101.648 302.251 Z" style=""/>
  <path d="M 976.923 195.389 C 976.923 202.792 976.923 209.85 976.923 216.908 C 976.923 217.683 976.511 218.027 975.976 218.371 C 965.642 225.516 954.323 229.561 941.973 230.38 C 933.533 230.938 925.136 230.852 916.903 228.529 C 903.688 224.784 894.467 215.79 887.716 203.739 C 881.047 191.861 879.194 178.821 880.017 165.264 C 880.718 153.386 883.764 142.282 890.596 132.598 C 900.189 118.87 913.321 112.113 929.458 111.726 C 941.767 111.424 952.924 114.609 962.143 123.56 C 970.953 132.082 975.647 142.841 977.747 155.021 C 978.692 160.444 978.981 165.952 979.022 171.504 C 979.022 173.226 978.569 173.613 976.964 173.57 C 952.676 173.527 928.388 173.57 904.1 173.484 C 901.959 173.484 901.589 174.001 901.835 176.153 C 903.482 190.699 910.109 201.458 923.448 206.923 C 930.94 209.979 938.761 209.808 946.542 208.688 C 957.204 207.139 966.795 202.878 975.564 196.423 C 975.893 196.079 976.264 195.82 976.923 195.389 Z" style=""/>
  <path d="M 869.932 114.35 C 866.967 120.935 864.086 127.347 861.246 133.716 C 838.481 184.414 815.716 235.111 792.993 285.853 C 792.293 287.359 791.592 287.918 789.946 287.918 C 782.618 287.789 775.291 287.875 767.675 287.875 C 769.816 283.098 771.832 278.536 773.89 273.974 C 784.019 251.423 794.145 228.828 804.271 206.276 C 804.848 204.985 804.766 203.91 804.188 202.661 C 790.605 173.87 777.102 145.122 763.517 116.33 C 762.571 114.306 762.571 114.306 764.793 114.306 C 771.586 114.306 778.378 114.392 785.171 114.264 C 786.941 114.221 787.806 114.866 788.546 116.501 C 797.932 137.202 807.4 157.903 816.909 178.733 C 817.857 177.829 818.145 176.624 818.597 175.592 C 827.284 155.795 835.97 135.997 844.573 116.157 C 845.192 114.78 845.849 114.264 847.29 114.306 C 854.166 114.392 860.998 114.35 867.873 114.35 C 868.532 114.264 869.108 114.306 869.932 114.35 Z" style=""/>
  <path class="st3" d="M 153.517 123.905 C 175.706 123.905 193.078 142.153 193.036 165.436 C 193.036 187.945 175.294 206.321 153.64 206.321 C 131.699 206.321 114.038 187.858 114.038 164.962 C 114.079 142.282 131.739 123.905 153.517 123.905 Z" style=""/>
  <path d="M 553.652 90.251 C 553.652 97.738 553.693 104.84 553.61 111.898 C 553.57 113.62 554.022 114.007 555.628 114.007 C 565.919 113.921 576.211 114.007 586.503 113.921 C 587.984 113.921 588.52 114.223 588.479 115.9 C 588.355 121.366 588.355 126.789 588.479 132.254 C 588.52 133.976 588.15 134.536 586.379 134.536 C 576.047 134.406 565.672 134.492 555.298 134.449 C 554.187 134.449 553.61 134.492 553.61 135.998 C 553.693 154.849 553.693 173.699 553.734 192.593 C 553.734 194.83 554.105 197.025 554.641 199.177 C 556.616 206.837 562.215 210.711 570.078 210.367 C 577.858 210.022 584.939 207.398 591.69 203.61 C 592.389 203.222 593.089 202.792 594.078 202.233 C 594.078 208.043 593.79 213.551 594.16 219.017 C 594.447 222.847 593.047 224.482 589.838 225.903 C 578.557 230.852 567.031 232.659 555.134 229.346 C 540.972 225.387 532.987 214.628 532.246 199.263 C 531.422 182.995 531.998 166.813 531.834 150.632 C 531.793 145.811 531.752 141.034 531.874 136.213 C 531.916 134.75 531.464 134.449 530.146 134.449 C 525 134.536 519.855 134.492 514.709 134.449 C 514.092 134.449 513.145 134.923 512.898 134.019 C 512.65 133.115 512.65 132.126 513.515 131.265 C 515.779 129.07 517.92 126.746 520.102 124.508 C 530.97 113.362 541.837 102.214 552.706 91.068 C 552.91 90.897 553.117 90.724 553.652 90.251 Z" style=""/>
  <path d="M 724.903 141.508 C 724.903 113.189 724.903 84.871 724.862 56.509 C 724.862 54.745 725.233 54.271 726.961 54.315 C 733.013 54.443 739.024 54.401 745.074 54.315 C 746.434 54.315 746.762 54.659 746.762 56.079 C 746.721 113.103 746.721 170.128 746.762 227.109 C 746.762 228.485 746.434 228.916 745.074 228.873 C 738.983 228.786 732.848 228.786 726.757 228.873 C 725.191 228.916 724.862 228.442 724.862 226.893 C 724.903 198.445 724.903 169.955 724.903 141.508 Z" style=""/>
  <path d="M 1072.634 144.778 C 1069.011 141.421 1065.389 138.279 1061.107 136.085 C 1052.009 131.479 1042.541 133.331 1035.708 141.163 C 1029.08 148.737 1025.787 157.689 1025.787 167.932 C 1025.746 187.514 1025.746 207.096 1025.828 226.678 C 1025.828 228.442 1025.416 228.958 1023.687 228.958 C 1017.717 228.83 1011.749 228.873 1005.78 228.958 C 1004.339 228.958 1003.763 228.7 1003.763 226.978 C 1003.804 189.967 1003.804 152.955 1003.763 115.986 C 1003.763 114.351 1004.216 113.964 1005.739 114.007 C 1011.79 114.092 1017.8 114.092 1023.852 114.007 C 1025.375 113.964 1025.828 114.351 1025.828 116.03 C 1025.746 123.13 1025.787 130.231 1025.787 137.333 C 1025.787 138.021 1025.787 138.709 1025.787 139.355 C 1028.421 135.697 1030.767 131.91 1033.403 128.424 C 1036.408 124.421 1039.742 120.72 1043.612 117.579 C 1051.927 110.865 1060.777 110.091 1070.246 114.609 C 1075.103 116.933 1079.302 120.247 1083.296 123.862 C 1083.956 124.465 1084.16 124.981 1083.625 125.842 C 1079.921 132.039 1076.298 138.365 1072.634 144.778 Z" style=""/>
  <path d="M 475.025 171.202 C 475.025 152.826 475.066 134.492 474.984 116.116 C 474.984 114.308 475.355 113.877 477.083 113.921 C 483.134 114.05 489.145 114.007 495.196 113.921 C 496.555 113.921 496.884 114.308 496.884 115.685 C 496.843 152.826 496.843 189.967 496.884 227.109 C 496.884 228.485 496.555 228.873 495.196 228.873 C 489.104 228.786 482.969 228.786 476.877 228.873 C 475.313 228.916 474.984 228.442 474.984 226.85 C 475.066 208.344 475.025 189.753 475.025 171.202 Z" style=""/>
  <path d="M 486.058 65.633 C 493.261 65.676 498.943 71.658 498.901 79.147 C 498.86 86.592 492.808 92.704 485.687 92.617 C 478.936 92.532 472.925 86.033 473.049 78.932 C 473.131 71.744 479.142 65.59 486.058 65.633 Z" style=""/>
  <path class="st4" d="M 373.139 175.076 C 373.139 165.306 373.18 155.58 373.098 145.811 C 373.098 144.434 373.468 143.573 374.497 142.755 C 380.384 137.893 386.682 133.933 394.298 133.073 C 406.36 131.652 415.746 136.343 422.332 146.93 C 428.095 156.183 429.207 166.512 428.177 177.271 C 427.19 187.385 423.279 195.95 415.746 202.534 C 408.912 208.472 400.884 210.066 392.28 209.549 C 386.435 209.205 380.713 208.259 375.074 206.752 C 373.714 206.364 373.098 205.848 373.139 204.169 C 373.18 194.443 373.139 184.76 373.139 175.076 Z" style=""/>
  <path class="st4" d="M 929.582 159.798 C 920.937 159.798 912.292 159.798 903.646 159.798 C 902.823 159.798 902.001 159.969 902.289 158.55 C 904.141 149.383 907.681 141.292 915.461 135.913 C 924.929 129.372 942.713 129.372 951.07 140.733 C 954.98 146.025 956.627 152.094 957.204 158.636 C 957.327 159.927 956.751 159.841 955.928 159.841 C 950.658 159.841 945.349 159.841 940.079 159.841 C 936.58 159.798 933.081 159.798 929.582 159.798 Z" style=""/>
</svg>