<?xml version="1.0" encoding="utf-8"?>
<svg viewBox="0 0 1100 350" width="1100" height="350" xmlns="http://www.w3.org/2000/svg">
  <g transform="matrix(2.314321, 0, 0, 2.648172, -46.282135, -497.366425)" style="">
    <path class="st0" d="M442.8,281.1l-0.6,0.2c-3.8,1.3-9.3,3.2-14.3,5.5c-0.3,0.1-0.4,0.5-0.4,0.5c-0.1,0.2-0.2,0.5-0.3,0.8l0,0 c-0.6,1.3-1.3,3.2-1.7,4l-0.3,0.6c0,0.1,0,0.2,0.1,0.3c0,0,0.1,0.1,0.2,0.1c0,0,0.1,0,0.1,0l0.6-0.3c1.4-0.7,3.1-1.6,4.9-2.5l0.1,0 c3.5-1.6,7.4-3.5,9.7-4.6c0,0,0.4-0.2,0.6-0.6l1.8-3.5c0-0.1,0-0.2,0-0.3C443,281.1,442.9,281.1,442.8,281.1z" style="fill: rgb(0, 202, 0);"/>
    <path class="st0" d="M428.7,275.6c0.2-0.5,1.4-2.7,1.6-3.2l0-0.1c7.6-14.4,16.9-28,27.6-40.4l0.3-0.3c0.1-0.1,0.1-0.3,0-0.4 c-0.1-0.1-0.2-0.2-0.3-0.2l-0.4,0.1c-7,1-14.1,2.3-21.1,4c-0.7,0.2-1.1,0.6-1.2,0.8c-5.2,6.3-10.2,12.9-14.8,19.7 c-0.2,0.3-0.3,1.2-0.3,1.2s1.1,8.8,2.8,15.3c-4.1,11.9-7.8,27.6-7.8,27.6c0,0.1,0,0.2,0.1,0.3c0.1,0.1,0.2,0.1,0.3,0.1h2.4 c0.1,0,0.3-0.1,0.3-0.2l0.2-0.4c2.4-6.6,5.2-13,8.2-19.4C427.3,278.6,428.7,275.6,428.7,275.6z" style="fill: rgb(0, 202, 0);"/>
    <path class="st0" d="M461.5,234.6l0-0.4c0-0.1-0.1-0.3-0.2-0.3c-0.1,0-0.3,0-0.4,0.1l-0.3,0.3c-12.5,14.4-23,30.5-31.2,47.6 l-0.2,0.4c-0.1,0.1,0,0.3,0.1,0.4c0.1,0.1,0.2,0.1,0.2,0.1c0,0,0.1,0,0.1,0l0.4-0.2c7-2.9,14.2-5.4,21.3-7.5c0.4-0.1,0.8-0.4,1-0.8 c3.1-6.1,10.4-17.8,10.4-17.8c0.2-0.3,0.1-0.7,0.1-0.7S461.6,241.7,461.5,234.6z" style="fill: rgb(0, 202, 0);"/>
    <path class="st0" d="M477.7,214.3c-1.8-1.5-4.3-2.3-8.3-2.3c-3.6-0.1-7.9,0.7-12.8,2.3c-0.7,0.3-1.3,0.7-1.8,1.2 c-5,4.7-9.8,9.6-14.4,14.7l-0.4,0.4c-0.1,0.1-0.1,0.3,0,0.4c0.1,0.1,0.2,0.2,0.4,0.2l0.5-0.1c7.4-1.6,14.8-2.8,22.1-3.6 c0.5-0.1,1,0.1,1.3,0.4c0.4,0.3,0.6,0.8,0.6,1.3c-0.1,7.2,0.1,14.5,0.8,21.6l0,0.5c0,0.1,0.1,0.3,0.3,0.3c0,0,0,0,0.1,0 c0.1,0,0.2-0.1,0.3-0.1l0.3-0.4c4.1-5.9,8.6-11.5,13.3-16.9l0,0c0.5-0.6,0.7-1,0.8-1.5C482,223,479.7,216,477.7,214.3z" style="fill: rgb(0, 202, 0);"/>
    <path class="st0" d="M139.7,235.4c-4.3,0-8.7,2.1-11.5,5.3H128v-20.1h-7.8v58.5h7.1V275h0.2c2.7,3.1,7.7,5.3,12,5.3 c11.2,0,18.4-8.8,18.4-22.5C158,244.6,150.5,235.4,139.7,235.4z M138.4,273.2c-5.9,0-10.3-4-10.3-9.3v-11.4c0-5.7,4.5-10,10.3-10 c7.6,0,11.9,5.5,11.9,15.3C150.3,267.7,146,273.2,138.4,273.2z" style="fill: rgb(0, 202, 0);"/>
    <path class="st0" d="M95,235.4c-11.5,0-19.5,9.2-19.5,22.5c0,13.6,7.7,22.5,19.5,22.5c11.6,0,19.2-8.9,19.2-22.5 C114.2,244.6,106.4,235.4,95,235.4z M95,273.2c-7.3,0-11.8-5.9-11.8-15.4c0-9.5,4.5-15.3,11.8-15.3c7.1,0,11.5,6,11.5,15.3 C106.5,267.2,102.1,273.2,95,273.2z" style="fill: rgb(0, 202, 0);"/>
    <path class="st0" d="M71.9,239.2c0-9.9-7.4-16.3-18.9-16.3H31v56.1h8v-22.2h11.5c8.8,0,12,3.5,12,13.3v8.9h7.8v-8.9 c0-9-2.7-14.3-8.7-16.5C67.7,251.6,71.9,246.5,71.9,239.2z M52.3,249.7H39v-19.5h13.2c7.6,0,11.5,3.3,11.5,9.8 C63.8,246.3,59.8,249.7,52.3,249.7z" style="fill: rgb(0, 202, 0);"/>
    <path class="st0" d="M200.5,235.4c-4.5,0-9.3,2.2-11.6,5.3h-0.2v-4.1H181v42.5h7.8v-26.7c0-6,3.9-9.8,10.1-9.8c6.1,0,9,3.5,9,10.9 v25.6h7.9v-27.8C215.8,241.4,209.8,235.4,200.5,235.4z" style="fill: rgb(0, 202, 0);"/>
    <path class="st0" d="M327.3,235.4c-11.5,0-19.5,9.2-19.5,22.5c0,13.6,7.7,22.5,19.5,22.5c11.6,0,19.2-8.9,19.2-22.5 C346.6,244.6,338.7,235.4,327.3,235.4z M327.3,273.2c-7.3,0-11.8-5.9-11.8-15.4c0-9.5,4.5-15.3,11.8-15.3c7.1,0,11.5,6,11.5,15.3 C338.9,267.2,334.4,273.2,327.3,273.2z" style="fill: rgb(0, 202, 0);"/>
    <path class="st0" d="M381.4,220.5v20.1h-0.2c-2.8-3.3-7.2-5.3-11.5-5.3c-10.7,0-18.4,9.4-18.4,22.5c0,13.6,7.2,22.5,18.4,22.5 c4.3,0,9.3-2.2,12-5.3h0.2v4.1h7.1v-58.5C389.2,220.5,381.4,220.5,381.4,220.5z M381.4,263.9c0,5.3-4.5,9.3-10.3,9.3 c-7.6,0-11.9-5.5-11.9-15.4c0-9.8,4.3-15.3,11.9-15.3c5.9,0,10.3,4.3,10.3,10V263.9z" style="fill: rgb(0, 202, 0);"/>
    <path class="st0" d="M283.8,235.4c-11.5,0-19.5,9.2-19.5,22.5c0,13.6,7.7,22.5,19.5,22.5c11.6,0,19.2-8.9,19.2-22.5 C303,244.6,295.2,235.4,283.8,235.4z M283.8,273.2c-7.3,0-11.8-5.9-11.8-15.4c0-9.5,4.5-15.3,11.8-15.3c7.1,0,11.5,6,11.5,15.3 C295.3,267.2,290.8,273.2,283.8,273.2z" style="fill: rgb(0, 202, 0);"/>
    <rect x="164.1" y="220.5" class="st0" width="8.4" height="8.3" style="fill: rgb(0, 202, 0);"/>
    <path class="st0" d="M243.5,235.4c-4.7,0-9.5,2.2-11.8,5.5h-0.2v-20.3h-7.8v58.5h7.8v-26.7c0-5.8,4.2-9.8,10.1-9.8 c5.9,0,9.2,3.8,9.2,10.5v26h7.8v-27.9C258.7,241.4,252.8,235.4,243.5,235.4z" style="fill: rgb(0, 202, 0);"/>
    <rect x="164.4" y="236.6" class="st0" width="7.8" height="42.5" style="fill: rgb(0, 202, 0);"/>
  </g>
</svg>